<?xml version="1.0" standalone="no"?>
<!DOCTYPE svg PUBLIC "-//W3C//DTD SVG 20010904//EN"
 "http://www.w3.org/TR/2001/REC-SVG-20010904/DTD/svg10.dtd">
<svg version="1.0" xmlns="http://www.w3.org/2000/svg"
 width="200.000000pt" height="210.000000pt" viewBox="0 0 200.000000 210.000000"
 preserveAspectRatio="xMidYMid meet">

<g transform="translate(0.000000,210.000000) scale(0.100000,-0.100000)"
fill="currentColor" stroke="none">
<!-- fill="#000000" stroke="none"> -->
<path d="M910 2009 c-66 -7 -242 -57 -259 -74 -9 -10 24 -32 114 -77 102 -51
166 -99 203 -148 l29 -39 29 38 c37 50 110 103 221 160 48 25 89 51 90 57 5
14 -114 59 -193 73 -90 16 -152 18 -234 10z"/>
<path d="M517 1864 c-95 -55 -211 -163 -266 -247 -57 -89 -154 -357 -136 -376
14 -13 112 69 199 167 112 125 169 169 266 202 56 19 79 22 166 17 56 -3 118
-13 138 -21 35 -15 36 -15 36 9 0 41 -62 107 -160 173 -52 35 -109 76 -125 93
-17 16 -33 29 -36 29 -2 0 -39 -21 -82 -46z"/>
<path d="M1377 1895 c-4 -8 -50 -44 -104 -79 -54 -35 -110 -75 -125 -88 -35
-30 -78 -96 -78 -119 0 -17 2 -17 43 -3 23 9 85 18 138 21 81 5 106 2 160 -16
88 -29 155 -77 231 -163 123 -142 216 -223 235 -204 18 18 -79 285 -136 372
-52 82 -141 168 -236 229 -94 62 -120 72 -128 50z"/>
<path d="M532 1504 c-33 -16 -98 -68 -169 -135 -107 -101 -193 -159 -234 -159
-23 0 -29 -46 -18 -150 17 -166 79 -328 185 -487 31 -46 60 -85 63 -87 3 -2 6
44 7 102 0 143 20 191 118 301 41 45 77 95 81 110 5 22 -3 47 -31 103 -30 59
-37 84 -38 133 0 73 32 182 73 248 17 26 27 47 23 47 -4 -1 -31 -12 -60 -26z"/>
<path d="M1418 1488 c49 -73 75 -154 76 -239 1 -67 -3 -82 -31 -137 -53 -100
-47 -127 54 -234 30 -32 66 -83 81 -115 24 -52 27 -69 27 -170 0 -61 4 -109 8
-106 16 10 127 185 156 247 62 129 105 313 99 417 -3 51 -4 52 -44 64 -56 16
-112 57 -225 163 -92 86 -157 132 -207 147 -22 6 -21 5 6 -37z"/>
<path d="M640 1359 c-24 -10 -24 -11 -5 -21 11 -6 33 -22 48 -37 23 -22 40
-27 100 -31 63 -4 73 -8 82 -27 5 -13 13 -23 16 -23 7 0 23 90 17 94 -2 1 -40
14 -84 29 -85 28 -132 32 -174 16z"/>
<path d="M1230 1363 c-8 -2 -28 -11 -45 -18 -16 -7 -45 -16 -62 -20 -35 -7
-37 -12 -24 -80 l7 -40 15 30 c13 28 18 30 86 35 60 4 77 9 100 31 15 15 37
31 48 37 19 10 19 11 -8 21 -29 11 -90 13 -117 4z"/>
<path d="M924 989 c-72 -12 -104 -26 -104 -45 0 -20 64 -83 108 -106 52 -28
44 -59 -25 -95 -120 -63 -159 -65 -211 -12 -37 38 -53 98 -46 170 l5 54 -18
-25 c-10 -14 -54 -64 -99 -111 -99 -105 -114 -142 -121 -290 l-5 -106 72 -71
c63 -63 196 -172 210 -172 3 0 6 39 6 88 1 48 8 105 16 127 l15 39 7 -59 c4
-36 22 -94 46 -146 22 -47 40 -94 40 -103 0 -19 56 -47 132 -66 41 -11 56 -9
123 11 42 12 79 27 83 33 4 6 17 36 28 66 12 30 34 82 48 115 14 33 26 80 26
105 l1 45 16 -40 c8 -22 18 -80 22 -129 l6 -88 65 48 c36 27 98 82 139 121
l74 73 -5 112 c-5 143 -29 200 -113 279 -32 30 -71 74 -86 98 l-29 45 0 -70
c0 -85 -25 -145 -72 -174 -40 -25 -74 -22 -157 15 -101 46 -115 82 -45 120 44
24 96 82 92 103 -6 32 -154 57 -244 41z m201 -308 c36 -21 43 -54 20 -107 -16
-38 -17 -38 -28 -16 -13 29 -19 28 -40 -7 -9 -16 -31 -41 -48 -56 -28 -23 -34
-24 -53 -12 -11 7 -35 34 -52 60 l-31 45 -12 -25 c-15 -33 -26 -22 -43 41 -12
47 -12 49 11 65 14 9 52 28 85 43 l60 26 50 -20 c28 -10 65 -27 81 -37z"/>
</g>
</svg>
